<?xml version="1.0" encoding="UTF-8"?>
<svg xmlns="http://www.w3.org/2000/svg" width="1024" height="1024" viewBox="0 0 1024 1024">
  <title>NOT4BFLU55 QR-Siegel</title>
  <desc>QR-Siegel für das maschinenlesbare Resolving des NOT4BFLU55-Artefakts.</desc>

  <circle cx="512" cy="512" r="420" fill="none" stroke="#2b2b2b" stroke-width="16"/>
  <circle cx="512" cy="512" r="392" fill="none" stroke="#7a7a7a" stroke-width="2"/>

  <circle cx="441.77" cy="158.92" r="11" fill="#2b2b2b"/>
  <circle cx="153.73" cy="476.71" r="7"  fill="#2b2b2b"/>
  <circle cx="829.49" cy="342.3"  r="8"  fill="#2b2b2b"/>
  <circle cx="753.76" cy="778.74" r="9"  fill="#2b2b2b"/>
  <circle cx="844.6"  cy="374.23" r="7"  fill="#2b2b2b"/>
  <circle cx="350.14" cy="190.44" r="11" fill="#2b2b2b"/>
  <circle cx="186.56" cy="358.08" r="11" fill="#2b2b2b"/>

  <rect x="247" y="247" width="530" height="530" rx="22" ry="22" fill="#ffffff" stroke="#2b2b2b" stroke-width="8"/>
  <g transform="translate(272 272) scale(12.972973)" fill="#111111">
    <path d="M2,2H3V3H2zM3,2H4V3H3zM4,2H5V3H4zM5,2H6V3H5zM6,2H7V3H6zM7,2H8V3H7zM8,2H9V3H8zM11,2H12V3H11zM13,2H14V3H13zM14,2H15V3H14zM15,2H16V3H15zM18,2H19V3H18zM19,2H20V3H19zM20,2H21V3H20zM21,2H22V3H21zM25,2H26V3H25zM28,2H29V3H28zM29,2H30V3H29zM30,2H31V3H30zM31,2H32V3H31zM32,2H33V3H32zM33,2H34V3H33zM34,2H35V3H34zM2,3H3V4H2zM8,3H9V4H8zM11,3H12V4H11zM14,3H15V4H14zM15,3H16V4H15zM16,3H17V4H16zM17,3H18V4H17zM18,3H19V4H18zM19,3H20V4H19zM22,3H23V4H22zM24,3H25V4H24zM26,3H27V4H26zM28,3H29V4H28zM34,3H35V4H34zM2,4H3V5H2zM4,4H5V5H4zM5,4H6V5H5zM6,4H7V5H6zM8,4H9V5H8zM10,4H11V5H10zM11,4H12V5H11zM13,4H14V5H13zM15,4H16V5H15zM19,4H20V5H19zM20,4H21V5H20zM22,4H23V5H22zM25,4H26V5H25zM26,4H27V5H26zM28,4H29V5H28zM30,4H31V5H30zM31,4H32V5H31zM32,4H33V5H32zM34,4H35V5H34zM2,5H3V6H2zM4,5H5V6H4zM5,5H6V6H5zM6,5H7V6H6zM8,5H9V6H8zM10,5H11V6H10zM11,5H12V6H11zM12,5H13V6H12zM16,5H17V6H16zM18,5H19V6H18zM22,5H23V6H22zM23,5H24V6H23zM24,5H25V6H24zM26,5H27V6H26zM28,5H29V6H28zM30,5H31V6H30zM31,5H32V6H31zM32,5H33V6H32zM34,5H35V6H34zM2,6H3V7H2zM4,6H5V7H4zM5,6H6V7H5zM6,6H7V7H6zM8,6H9V7H8zM10,6H11V7H10zM13,6H14V7H13zM15,6H16V7H15zM17,6H18V7H17zM19,6H20V7H19zM20,6H21V7H20zM23,6H24V7H23zM26,6H27V7H26zM28,6H29V7H28zM30,6H31V7H30zM31,6H32V7H31zM32,6H33V7H32zM34,6H35V7H34zM2,7H3V8H2zM8,7H9V8H8zM10,7H11V8H10zM11,7H12V8H11zM12,7H13V8H12zM13,7H14V8H13zM14,7H15V8H14zM15,7H16V8H15zM16,7H17V8H16zM17,7H18V8H17zM18,7H19V8H18zM19,7H20V8H19zM22,7H23V8H22zM24,7H25V8H24zM28,7H29V8H28zM34,7H35V8H34zM2,8H3V9H2zM3,8H4V9H3zM4,8H5V9H4zM5,8H6V9H5zM6,8H7V9H6zM7,8H8V9H7zM8,8H9V9H8zM10,8H11V9H10zM12,8H13V9H12zM14,8H15V9H14zM16,8H17V9H16zM18,8H19V9H18zM20,8H21V9H20zM22,8H23V9H22zM24,8H25V9H24zM26,8H27V9H26zM28,8H29V9H28zM29,8H30V9H29zM30,8H31V9H30zM31,8H32V9H31zM32,8H33V9H32zM33,8H34V9H33zM34,8H35V9H34zM10,9H11V10H10zM13,9H14V10H13zM17,9H18V10H17zM23,9H24V10H23zM2,10H3V11H2zM4,10H5V11H4zM5,10H6V11H5zM6,10H7V11H6zM7,10H8V11H7zM8,10H9V11H8zM12,10H13V11H12zM15,10H16V11H15zM16,10H17V11H16zM17,10H18V11H17zM19,10H20V11H19zM20,10H21V11H20zM24,10H25V11H24zM26,10H27V11H26zM28,10H29V11H28zM29,10H30V11H29zM30,10H31V11H30zM31,10H32V11H31zM32,10H33V11H32zM3,11H4V12H3zM9,11H10V12H9zM10,11H11V12H10zM18,11H19V12H18zM20,11H21V12H20zM21,11H22V12H21zM22,11H23V12H22zM23,11H24V12H23zM25,11H26V12H25zM28,11H29V12H28zM29,11H30V12H29zM31,11H32V12H31zM32,11H33V12H32zM34,11H35V12H34zM2,12H3V13H2zM4,12H5V13H4zM8,12H9V13H8zM9,12H10V13H9zM11,12H12V13H11zM14,12H15V13H14zM17,12H18V13H17zM18,12H19V13H18zM20,12H21V13H20zM23,12H24V13H23zM26,12H27V13H26zM30,12H31V13H30zM32,12H33V13H32zM3,13H4V14H3zM4,13H5V14H4zM5,13H6V14H5zM9,13H10V14H9zM10,13H11V14H10zM14,13H15V14H14zM16,13H17V14H16zM17,13H18V14H17zM18,13H19V14H18zM22,13H23V14H22zM23,13H24V14H23zM24,13H25V14H24zM28,13H29V14H28zM30,13H31V14H30zM31,13H32V14H31zM32,13H33V14H32zM34,13H35V14H34zM2,14H3V15H2zM3,14H4V15H3zM5,14H6V15H5zM7,14H8V15H7zM8,14H9V15H8zM9,14H10V15H9zM10,14H11V15H10zM11,14H12V15H11zM12,14H13V15H12zM14,14H15V15H14zM20,14H21V15H20zM23,14H24V15H23zM27,14H28V15H27zM29,14H30V15H29zM30,14H31V15H30zM31,14H32V15H31zM33,14H34V15H33zM34,14H35V15H34zM2,15H3V16H2zM3,15H4V16H3zM4,15H5V16H4zM13,15H14V16H13zM15,15H16V16H15zM16,15H17V16H16zM17,15H18V16H17zM18,15H19V16H18zM19,15H20V16H19zM22,15H23V16H22zM24,15H25V16H24zM25,15H26V16H25zM26,15H27V16H26zM28,15H29V16H28zM31,15H32V16H31zM33,15H34V16H33zM34,15H35V16H34zM4,16H5V17H4zM5,16H6V17H5zM6,16H7V17H6zM8,16H9V17H8zM10,16H11V17H10zM12,16H13V17H12zM15,16H16V17H15zM19,16H20V17H19zM21,16H22V17H21zM23,16H24V17H23zM24,16H25V17H24zM27,16H28V17H27zM28,16H29V17H28zM29,16H30V17H29zM31,16H32V17H31zM33,16H34V17H33zM2,17H3V18H2zM3,17H4V18H3zM6,17H7V18H6zM9,17H10V18H9zM10,17H11V18H10zM14,17H15V18H14zM18,17H19V18H18zM20,17H21V18H20zM21,17H22V18H21zM22,17H23V18H22zM23,17H24V18H23zM27,17H28V18H27zM28,17H29V18H28zM31,17H32V18H31zM32,17H33V18H32zM2,18H3V19H2zM4,18H5V19H4zM6,18H7V19H6zM7,18H8V19H7zM8,18H9V19H8zM11,18H12V19H11zM14,18H15V19H14zM16,18H17V19H16zM19,18H20V19H19zM21,18H22V19H21zM24,18H25V19H24zM27,18H28V19H27zM29,18H30V19H29zM30,18H31V19H30zM34,18H35V19H34zM2,19H3V20H2zM5,19H6V20H5zM7,19H8V20H7zM12,19H13V20H12zM14,19H15V20H14zM16,19H17V20H16zM19,19H20V20H19zM21,19H22V20H21zM22,19H23V20H22zM24,19H25V20H24zM25,19H26V20H25zM26,19H27V20H26zM28,19H29V20H28zM29,19H30V20H29zM31,19H32V20H31zM32,19H33V20H32zM34,19H35V20H34zM2,20H3V21H2zM3,20H4V21H3zM5,20H6V21H5zM7,20H8V21H7zM8,20H9V21H8zM9,20H10V21H9zM12,20H13V21H12zM13,20H14V21H13zM16,20H17V21H16zM17,20H18V21H17zM19,20H20V21H19zM24,20H25V21H24zM26,20H27V21H26zM27,20H28V21H27zM29,20H30V21H29zM30,20H31V21H30zM32,20H33V21H32zM33,20H34V21H33zM3,21H4V22H3zM7,21H8V22H7zM9,21H10V22H9zM10,21H11V22H10zM14,21H15V22H14zM16,21H17V22H16zM17,21H18V22H17zM18,21H19V22H18zM19,21H20V22H19zM20,21H21V22H20zM21,21H22V22H21zM22,21H23V22H22zM28,21H29V22H28zM29,21H30V22H29zM30,21H31V22H30zM31,21H32V22H31zM32,21H33V22H32zM33,21H34V22H33zM34,21H35V22H34zM5,22H6V23H5zM8,22H9V23H8zM11,22H12V23H11zM12,22H13V23H12zM15,22H16V23H15zM18,22H19V23H18zM21,22H22V23H21zM22,22H23V23H22zM23,22H24V23H23zM24,22H25V23H24zM27,22H28V23H27zM30,22H31V23H30zM31,22H32V23H31zM33,22H34V23H33zM2,23H3V24H2zM3,23H4V24H3zM9,23H10V24H9zM10,23H11V24H10zM12,23H13V24H12zM15,23H16V24H15zM17,23H18V24H17zM20,23H21V24H20zM23,23H24V24H23zM25,23H26V24H25zM26,23H27V24H26zM28,23H29V24H28zM29,23H30V24H29zM31,23H32V24H31zM34,23H35V24H34zM2,24H3V25H2zM5,24H6V25H5zM7,24H8V25H7zM8,24H9V25H8zM12,24H13V25H12zM13,24H14V25H13zM14,24H15V25H14zM17,24H18V25H17zM18,24H19V25H18zM19,24H20V25H19zM22,24H23V25H22zM23,24H24V25H23zM24,24H25V25H24zM27,24H28V25H27zM28,24H29V25H28zM29,24H30V25H29zM33,24H34V25H33zM2,25H3V26H2zM5,25H6V26H5zM7,25H8V26H7zM10,25H11V26H10zM11,25H12V26H11zM17,25H18V26H17zM23,25H24V26H23zM24,25H25V26H24zM28,25H29V26H28zM31,25H32V26H31zM32,25H33V26H32zM2,26H3V27H2zM4,26H5V27H4zM8,26H9V27H8zM12,26H13V27H12zM15,26H16V27H15zM17,26H18V27H17zM19,26H20V27H19zM26,26H27V27H26zM27,26H28V27H27zM28,26H29V27H28zM29,26H30V27H29zM30,26H31V27H30zM33,26H34V27H33zM34,26H35V27H34zM10,27H11V28H10zM11,27H12V28H11zM14,27H15V28H14zM15,27H16V28H15zM18,27H19V28H18zM20,27H21V28H20zM21,27H22V28H21zM23,27H24V28H23zM24,27H25V28H24zM25,27H26V28H25zM26,27H27V28H26zM30,27H31V28H30zM32,27H33V28H32zM33,27H34V28H33zM34,27H35V28H34zM2,28H3V29H2zM3,28H4V29H3zM4,28H5V29H4zM5,28H6V29H5zM6,28H7V29H6zM7,28H8V29H7zM8,28H9V29H8zM11,28H12V29H11zM12,28H13V29H12zM13,28H14V29H13zM14,28H15V29H14zM17,28H18V29H17zM20,28H21V29H20zM22,28H23V29H22zM23,28H24V29H23zM25,28H26V29H25zM26,28H27V29H26zM28,28H29V29H28zM30,28H31V29H30zM32,28H33V29H32zM33,28H34V29H33zM2,29H3V30H2zM8,29H9V30H8zM10,29H11V30H10zM12,29H13V30H12zM13,29H14V30H13zM14,29H15V30H14zM15,29H16V30H15zM16,29H17V30H16zM17,29H18V30H17zM18,29H19V30H18zM22,29H23V30H22zM23,29H24V30H23zM24,29H25V30H24zM25,29H26V30H25zM26,29H27V30H26zM30,29H31V30H30zM31,29H32V30H31zM32,29H33V30H32zM33,29H34V30H33zM34,29H35V30H34zM2,30H3V31H2zM4,30H5V31H4zM5,30H6V31H5zM6,30H7V31H6zM8,30H9V31H8zM10,30H11V31H10zM11,30H12V31H11zM14,30H15V31H14zM16,30H17V31H16zM20,30H21V31H20zM23,30H24V31H23zM26,30H27V31H26zM27,30H28V31H27zM28,30H29V31H28zM29,30H30V31H29zM30,30H31V31H30zM31,30H32V31H31zM33,30H34V31H33zM34,30H35V31H34zM2,31H3V32H2zM4,31H5V32H4zM5,31H6V32H5zM6,31H7V32H6zM8,31H9V32H8zM10,31H11V32H10zM12,31H13V32H12zM13,31H14V32H13zM14,31H15V32H14zM15,31H16V32H15zM17,31H18V32H17zM18,31H19V32H18zM22,31H23V32H22zM23,31H24V32H23zM24,31H25V32H24zM25,31H26V32H25zM27,31H28V32H27zM30,31H31V32H30zM31,31H32V32H31zM34,31H35V32H34zM2,32H3V33H2zM4,32H5V33H4zM5,32H6V33H5zM6,32H7V33H6zM8,32H9V33H8zM10,32H11V33H10zM11,32H12V33H11zM12,32H13V33H12zM14,32H15V33H14zM16,32H17V33H16zM21,32H22V33H21zM23,32H24V33H23zM24,32H25V33H24zM25,32H26V33H25zM28,32H29V33H28zM29,32H30V33H29zM31,32H32V33H31zM2,33H3V34H2zM8,33H9V34H8zM14,33H15V34H14zM15,33H16V34H15zM16,33H17V34H16zM18,33H19V34H18zM21,33H22V34H21zM22,33H23V34H22zM23,33H24V34H23zM24,33H25V34H24zM25,33H26V34H25zM27,33H28V34H27zM28,33H29V34H28zM30,33H31V34H30zM31,33H32V34H31zM32,33H33V34H32zM2,34H3V35H2zM3,34H4V35H3zM4,34H5V35H4zM5,34H6V35H5zM6,34H7V35H6zM7,34H8V35H7zM8,34H9V35H8zM10,34H11V35H10zM12,34H13V35H12zM13,34H14V35H13zM15,34H16V35H15zM16,34H17V35H16zM19,34H20V35H19zM21,34H22V35H21zM22,34H23V35H22zM25,34H26V35H25zM26,34H27V35H26zM29,34H30V35H29zM31,34H32V35H31zM33,34H34V35H33z"/>
  </g>

  <path d="M 152 542.62 L 207.38 543.72 L 262.77 548.38 L 318.15 549.03 L 373.54 480.84 L 428.92 547.33 L 484.31 597.34 L 539.69 619.53 L 595.08 689.45 L 650.46 719.63 L 705.85 714.34 L 761.23 726.52 L 816.62 708.15 L 872 732"
        fill="none" stroke="#b87333" stroke-width="10" stroke-linecap="round" stroke-linejoin="round"/>
  <path d="M 152 542.62 L 207.38 543.72 L 262.77 548.38 L 318.15 549.03 L 373.54 480.84 L 428.92 547.33 L 484.31 597.34 L 539.69 619.53 L 595.08 689.45 L 650.46 719.63 L 705.85 714.34 L 761.23 726.52 L 816.62 708.15 L 872 732"
        fill="none" stroke="#d19a66" stroke-width="3" stroke-linecap="round" stroke-linejoin="round"/>

  <path d="M 373.54 480.84 L 350.05 540.38"
        fill="none" stroke="#b87333" stroke-width="7" stroke-linecap="round" stroke-linejoin="round"/>
  <path d="M 373.54 480.84 L 350.05 540.38"
        fill="none" stroke="#d19a66" stroke-width="2" stroke-linecap="round" stroke-linejoin="round"/>

  <path d="M 484.31 597.34 L 474.63 522.97"
        fill="none" stroke="#b87333" stroke-width="7" stroke-linecap="round" stroke-linejoin="round"/>
  <path d="M 484.31 597.34 L 474.63 522.97"
        fill="none" stroke="#d19a66" stroke-width="2" stroke-linecap="round" stroke-linejoin="round"/>

  <path d="M 650.46 719.63 L 586.26 734.94"
        fill="none" stroke="#b87333" stroke-width="7" stroke-linecap="round" stroke-linejoin="round"/>
  <path d="M 650.46 719.63 L 586.26 734.94"
        fill="none" stroke="#d19a66" stroke-width="2" stroke-linecap="round" stroke-linejoin="round"/>

  <path d="M 595.08 689.45 L 689.7 668.11"
        fill="none" stroke="#b87333" stroke-width="7" stroke-linecap="round" stroke-linejoin="round"/>
  <path d="M 595.08 689.45 L 689.7 668.11"
        fill="none" stroke="#d19a66" stroke-width="2" stroke-linecap="round" stroke-linejoin="round"/>

  <circle cx="512" cy="512" r="44" fill="#0f0f10"/>
  <circle cx="512" cy="512" r="44" fill="none" stroke="#7a7a7a" stroke-width="2"/>

  <text x="512" y="855" text-anchor="middle" font-family="EB Garamond, Garamond, serif" font-size="36" fill="#2b2b2b">SIGIL 69c2-6f1e-ac13-412e</text>
  <text x="512" y="892" text-anchor="middle" font-family="Source Sans 3, Arial, sans-serif" font-size="22" fill="#5a5a5a">Scan. Resolve. Verify.</text>
</svg>
